<svg width="46" height="36" viewBox="0 0 46 36" fill="none" xmlns="http://www.w3.org/2000/svg">
<path d="M20.5 31.2502H43C43.9686 31.2502 44.75 32.0316 44.75 33.0002C44.7499 33.9687 43.9685 34.7502 43 34.7502H20.5C19.5315 34.7502 18.7501 33.9687 18.75 33.0002C18.75 32.0316 19.5314 31.2502 20.5 31.2502ZM1.7627 1.76288C2.40347 1.12251 3.41685 1.08241 4.10449 1.64276L4.23828 1.76288L19.2354 16.7648C19.9189 17.4485 19.919 18.5519 19.2354 19.2355L4.2373 34.2355C3.55365 34.9189 2.44609 34.9188 1.7627 34.2355C1.07925 33.5519 1.0793 32.4485 1.7627 31.7648L14.9912 18.5305L15.5215 18.0002L14.9912 17.4699L1.7627 4.23749C1.07938 3.55388 1.07951 2.44657 1.7627 1.76288Z" stroke="#3294F8" stroke-width="1.5"/>
</svg>
